<svg width="201" height="93" viewBox="0 0 201 93" fill="none" xmlns="http://www.w3.org/2000/svg">
<g filter="url(#filter0_d_0_1)">
<rect x="15" y="11.6523" width="171" height="62" rx="10" fill="white"/>
</g>
<path d="M94.645 42.4173C94.645 41.3973 94.875 40.4823 95.335 39.6723C95.795 38.8523 96.42 38.2123 97.21 37.7523C98.01 37.2923 98.895 37.0623 99.865 37.0623C101.005 37.0623 102 37.3373 102.85 37.8873C103.7 38.4373 104.32 39.2173 104.71 40.2273H103.075C102.785 39.5973 102.365 39.1123 101.815 38.7723C101.275 38.4323 100.625 38.2623 99.865 38.2623C99.135 38.2623 98.48 38.4323 97.9 38.7723C97.32 39.1123 96.865 39.5973 96.535 40.2273C96.205 40.8473 96.04 41.5773 96.04 42.4173C96.04 43.2473 96.205 43.9773 96.535 44.6073C96.865 45.2273 97.32 45.7073 97.9 46.0473C98.48 46.3873 99.135 46.5573 99.865 46.5573C100.625 46.5573 101.275 46.3923 101.815 46.0623C102.365 45.7223 102.785 45.2373 103.075 44.6073H104.71C104.32 45.6073 103.7 46.3823 102.85 46.9323C102 47.4723 101.005 47.7423 99.865 47.7423C98.895 47.7423 98.01 47.5173 97.21 47.0673C96.42 46.6073 95.795 45.9723 95.335 45.1623C94.875 44.3523 94.645 43.4373 94.645 42.4173ZM106.232 43.5123C106.232 42.6723 106.402 41.9373 106.742 41.3073C107.082 40.6673 107.547 40.1723 108.137 39.8223C108.737 39.4723 109.402 39.2973 110.132 39.2973C110.852 39.2973 111.477 39.4523 112.007 39.7623C112.537 40.0723 112.932 40.4623 113.192 40.9323V39.4323H114.572V47.6523H113.192V46.1223C112.922 46.6023 112.517 47.0023 111.977 47.3223C111.447 47.6323 110.827 47.7873 110.117 47.7873C109.387 47.7873 108.727 47.6073 108.137 47.2473C107.547 46.8873 107.082 46.3823 106.742 45.7323C106.402 45.0823 106.232 44.3423 106.232 43.5123ZM113.192 43.5273C113.192 42.9073 113.067 42.3673 112.817 41.9073C112.567 41.4473 112.227 41.0973 111.797 40.8573C111.377 40.6073 110.912 40.4823 110.402 40.4823C109.892 40.4823 109.427 40.6023 109.007 40.8423C108.587 41.0823 108.252 41.4323 108.002 41.8923C107.752 42.3523 107.627 42.8923 107.627 43.5123C107.627 44.1423 107.752 44.6923 108.002 45.1623C108.252 45.6223 108.587 45.9773 109.007 46.2273C109.427 46.4673 109.892 46.5873 110.402 46.5873C110.912 46.5873 111.377 46.4673 111.797 46.2273C112.227 45.9773 112.567 45.6223 112.817 45.1623C113.067 44.6923 113.192 44.1473 113.192 43.5273ZM118.244 40.7673C118.484 40.2973 118.824 39.9323 119.264 39.6723C119.714 39.4123 120.259 39.2823 120.899 39.2823V40.6923H120.539C119.009 40.6923 118.244 41.5223 118.244 43.1823V47.6523H116.879V39.4323H118.244V40.7673ZM121.964 43.5123C121.964 42.6723 122.134 41.9373 122.474 41.3073C122.814 40.6673 123.279 40.1723 123.869 39.8223C124.469 39.4723 125.139 39.2973 125.879 39.2973C126.519 39.2973 127.114 39.4473 127.664 39.7473C128.214 40.0373 128.634 40.4223 128.924 40.9023V36.5523H130.304V47.6523H128.924V46.1073C128.654 46.5973 128.254 47.0023 127.724 47.3223C127.194 47.6323 126.574 47.7873 125.864 47.7873C125.134 47.7873 124.469 47.6073 123.869 47.2473C123.279 46.8873 122.814 46.3823 122.474 45.7323C122.134 45.0823 121.964 44.3423 121.964 43.5123ZM128.924 43.5273C128.924 42.9073 128.799 42.3673 128.549 41.9073C128.299 41.4473 127.959 41.0973 127.529 40.8573C127.109 40.6073 126.644 40.4823 126.134 40.4823C125.624 40.4823 125.159 40.6023 124.739 40.8423C124.319 41.0823 123.984 41.4323 123.734 41.8923C123.484 42.3523 123.359 42.8923 123.359 43.5123C123.359 44.1423 123.484 44.6923 123.734 45.1623C123.984 45.6223 124.319 45.9773 124.739 46.2273C125.159 46.4673 125.624 46.5873 126.134 46.5873C126.644 46.5873 127.109 46.4673 127.529 46.2273C127.959 45.9773 128.299 45.6223 128.549 45.1623C128.799 44.6923 128.924 44.1473 128.924 43.5273ZM135.521 47.7873C134.891 47.7873 134.326 47.6823 133.826 47.4723C133.326 47.2523 132.931 46.9523 132.641 46.5723C132.351 46.1823 132.191 45.7373 132.161 45.2373H133.571C133.611 45.6473 133.801 45.9823 134.141 46.2423C134.491 46.5023 134.946 46.6323 135.506 46.6323C136.026 46.6323 136.436 46.5173 136.736 46.2873C137.036 46.0573 137.186 45.7673 137.186 45.4173C137.186 45.0573 137.026 44.7923 136.706 44.6223C136.386 44.4423 135.891 44.2673 135.221 44.0973C134.611 43.9373 134.111 43.7773 133.721 43.6173C133.341 43.4473 133.011 43.2023 132.731 42.8823C132.461 42.5523 132.326 42.1223 132.326 41.5923C132.326 41.1723 132.451 40.7873 132.701 40.4373C132.951 40.0873 133.306 39.8123 133.766 39.6123C134.226 39.4023 134.751 39.2973 135.341 39.2973C136.251 39.2973 136.986 39.5273 137.546 39.9873C138.106 40.4473 138.406 41.0773 138.446 41.8773H137.081C137.051 41.4473 136.876 41.1023 136.556 40.8423C136.246 40.5823 135.826 40.4523 135.296 40.4523C134.806 40.4523 134.416 40.5573 134.126 40.7673C133.836 40.9773 133.691 41.2523 133.691 41.5923C133.691 41.8623 133.776 42.0873 133.946 42.2673C134.126 42.4373 134.346 42.5773 134.606 42.6873C134.876 42.7873 135.246 42.9023 135.716 43.0323C136.306 43.1923 136.786 43.3523 137.156 43.5123C137.526 43.6623 137.841 43.8923 138.101 44.2023C138.371 44.5123 138.511 44.9173 138.521 45.4173C138.521 45.8673 138.396 46.2723 138.146 46.6323C137.896 46.9923 137.541 47.2773 137.081 47.4873C136.631 47.6873 136.111 47.7873 135.521 47.7873Z" fill="black"/>
<rect x="43" y="21.6523" width="42" height="41" rx="20" fill="#057B34"/>
<path d="M71.7916 31.6523H50.2928C48.8013 31.6523 47.6189 32.8761 47.6189 34.4023L47.6055 50.9023C47.6055 52.4286 48.8013 53.6523 50.2928 53.6523H71.7916C73.283 53.6523 74.4789 52.4286 74.4789 50.9023V34.4023C74.4789 32.8761 73.283 31.6523 71.7916 31.6523ZM71.7916 50.9023H50.2928V42.6523H71.7916V50.9023ZM71.7916 37.1523H50.2928V34.4023H71.7916V37.1523Z" fill="white"/>
<defs>
<filter id="filter0_d_0_1" x="0" y="0.652344" width="201" height="92" filterUnits="userSpaceOnUse" color-interpolation-filters="sRGB">
<feFlood flood-opacity="0" result="BackgroundImageFix"/>
<feColorMatrix in="SourceAlpha" type="matrix" values="0 0 0 0 0 0 0 0 0 0 0 0 0 0 0 0 0 0 127 0" result="hardAlpha"/>
<feOffset dy="4"/>
<feGaussianBlur stdDeviation="7.5"/>
<feComposite in2="hardAlpha" operator="out"/>
<feColorMatrix type="matrix" values="0 0 0 0 0.616883 0 0 0 0 0.609317 0 0 0 0 0.609317 0 0 0 0.25 0"/>
<feBlend mode="normal" in2="BackgroundImageFix" result="effect1_dropShadow_0_1"/>
<feBlend mode="normal" in="SourceGraphic" in2="effect1_dropShadow_0_1" result="shape"/>
</filter>
</defs>
</svg>
