<svg width="23" height="21" viewBox="0 0 23 21" fill="none" xmlns="http://www.w3.org/2000/svg">
<g clip-path="url(#clip0_1961_521)">
<rect x="-10" y="-4" width="43" height="32" rx="5" fill="#455A64"/>
<path d="M7.13809 10.5C5.85461 10.5391 4.80484 11.0391 3.9888 12H2.39633C1.74667 12 1.2 11.8418 0.75633 11.5254C0.312657 11.209 0.0908203 10.7461 0.0908203 10.1367C0.0908203 7.37891 0.58203 6 1.56445 6C1.61198 6 1.7843 6.08203 2.08141 6.24609C2.37851 6.41016 2.76474 6.57617 3.24011 6.74414C3.71547 6.91211 4.18687 6.99609 4.65431 6.99609C5.18514 6.99609 5.712 6.90625 6.2349 6.72656C6.19528 7.01562 6.17548 7.27344 6.17548 7.5C6.17548 8.58594 6.49635 9.58594 7.13809 10.5ZM19.866 17.9648C19.866 18.9023 19.5768 19.6426 18.9984 20.1855C18.4201 20.7285 17.6516 21 16.6929 21H6.3062C5.34755 21 4.57905 20.7285 4.00069 20.1855C3.42233 19.6426 3.13315 18.9023 3.13315 17.9648C3.13315 17.5508 3.14701 17.1465 3.17474 16.752C3.20247 16.3574 3.25793 15.9316 3.34112 15.4746C3.42431 15.0176 3.52929 14.5938 3.65605 14.2031C3.78281 13.8125 3.95315 13.4316 4.16707 13.0605C4.38098 12.6895 4.62658 12.373 4.90388 12.1113C5.18117 11.8496 5.51987 11.6406 5.91997 11.4844C6.32007 11.3281 6.76176 11.25 7.24505 11.25C7.32427 11.25 7.49461 11.334 7.75606 11.502C8.01751 11.6699 8.30669 11.8574 8.6236 12.0645C8.94051 12.2715 9.36438 12.459 9.8952 12.627C10.426 12.7949 10.9608 12.8789 11.4996 12.8789C12.0383 12.8789 12.5731 12.7949 13.1039 12.627C13.6347 12.459 14.0586 12.2715 14.3755 12.0645C14.6924 11.8574 14.9816 11.6699 15.243 11.502C15.5045 11.334 15.6748 11.25 15.7541 11.25C16.2373 11.25 16.679 11.3281 17.0791 11.4844C17.4792 11.6406 17.8179 11.8496 18.0952 12.1113C18.3725 12.373 18.6181 12.6895 18.832 13.0605C19.046 13.4316 19.2163 13.8125 19.3431 14.2031C19.4698 14.5938 19.5748 15.0176 19.658 15.4746C19.7412 15.9316 19.7966 16.3574 19.8244 16.752C19.8521 17.1465 19.866 17.5508 19.866 17.9648ZM7.69664 3C7.69664 3.82812 7.39954 4.53516 6.80533 5.12109C6.21113 5.70703 5.49412 6 4.65431 6C3.8145 6 3.0975 5.70703 2.50329 5.12109C1.90909 4.53516 1.61198 3.82812 1.61198 3C1.61198 2.17188 1.90909 1.46484 2.50329 0.878906C3.0975 0.292969 3.8145 0 4.65431 0C5.49412 0 6.21113 0.292969 6.80533 0.878906C7.39954 1.46484 7.69664 2.17188 7.69664 3ZM16.063 7.5C16.063 8.74219 15.6174 9.80273 14.7261 10.6816C13.8348 11.5605 12.7593 12 11.4996 12C10.2398 12 9.16433 11.5605 8.27302 10.6816C7.38171 9.80273 6.93606 8.74219 6.93606 7.5C6.93606 6.25781 7.38171 5.19727 8.27302 4.31836C9.16433 3.43945 10.2398 3 11.4996 3C12.7593 3 13.8348 3.43945 14.7261 4.31836C15.6174 5.19727 16.063 6.25781 16.063 7.5ZM22.9083 10.1367C22.9083 10.7461 22.6864 11.209 22.2428 11.5254C21.7991 11.8418 21.2524 12 20.6028 12H19.0103C18.1943 11.0391 17.1445 10.5391 15.861 10.5C16.5028 9.58594 16.8236 8.58594 16.8236 7.5C16.8236 7.27344 16.8038 7.01562 16.7642 6.72656C17.2871 6.90625 17.814 6.99609 18.3448 6.99609C18.8122 6.99609 19.2836 6.91211 19.759 6.74414C20.2344 6.57617 20.6206 6.41016 20.9177 6.24609C21.2148 6.08203 21.3871 6 21.4347 6C22.4171 6 22.9083 7.37891 22.9083 10.1367ZM21.3871 3C21.3871 3.82812 21.09 4.53516 20.4958 5.12109C19.9016 5.70703 19.1846 6 18.3448 6C17.505 6 16.788 5.70703 16.1938 5.12109C15.5996 4.53516 15.3025 3.82812 15.3025 3C15.3025 2.17188 15.5996 1.46484 16.1938 0.878906C16.788 0.292969 17.505 0 18.3448 0C19.1846 0 19.9016 0.292969 20.4958 0.878906C21.09 1.46484 21.3871 2.17188 21.3871 3Z" fill="white"/>
</g>
<defs>
<clipPath id="clip0_1961_521">
<rect width="23" height="21" fill="white"/>
</clipPath>
</defs>
</svg>
