<svg width="63" height="51" viewBox="0 0 63 51" fill="none" xmlns="http://www.w3.org/2000/svg">
<rect x="0.257812" y="0.223145" width="62.4285" height="50.7466" rx="5" fill="#455A64"/>
<path fill-rule="evenodd" clip-rule="evenodd" d="M20 10C19.2044 10 18.4413 10.3018 17.8787 10.8389C17.3161 11.376 17 12.1046 17 12.8642V33.8684C17 34.628 17.3161 35.3565 17.8787 35.8937C18.4413 36.4308 19.2044 36.7326 20 36.7326H21V38.642H23V36.7326H41V38.642H43V36.7326H44C44.7956 36.7326 45.5587 36.4308 46.1213 35.8937C46.6839 35.3565 47 34.628 47 33.8684V12.8642C47 12.1046 46.6839 11.376 46.1213 10.8389C45.5587 10.3018 44.7956 10 44 10H20ZM21 15.7284V21.4568H23V15.7284H21ZM36 19.5473C34.6739 19.5473 33.4021 20.0503 32.4645 20.9455C31.5268 21.8408 31 23.055 31 24.321C31 25.5871 31.5268 26.8013 32.4645 27.6965C33.4021 28.5918 34.6739 29.0947 36 29.0947C37.3261 29.0947 38.5979 28.5918 39.5355 27.6965C40.4732 26.8013 41 25.5871 41 24.321C41 23.055 40.4732 21.8408 39.5355 20.9455C38.5979 20.0503 37.3261 19.5473 36 19.5473ZM21 31.0042V25.2758H23V31.0042H21Z" fill="white"/>
</svg>
