<svg width="201" height="93" viewBox="0 0 201 93" fill="none" xmlns="http://www.w3.org/2000/svg">
<g filter="url(#filter0_d_0_1)">
<rect x="15" y="11.6523" width="171" height="62" rx="10" fill="white"/>
</g>
<path d="M73.41 38.1973C74.55 38.1973 75.535 38.4123 76.365 38.8423C77.205 39.2623 77.845 39.8673 78.285 40.6573C78.735 41.4473 78.96 42.3773 78.96 43.4473C78.96 44.5173 78.735 45.4473 78.285 46.2373C77.845 47.0173 77.205 47.6173 76.365 48.0373C75.535 48.4473 74.55 48.6523 73.41 48.6523H70.155V38.1973H73.41ZM73.41 47.5273C74.76 47.5273 75.79 47.1723 76.5 46.4623C77.21 45.7423 77.565 44.7373 77.565 43.4473C77.565 42.1473 77.205 41.1323 76.485 40.4023C75.775 39.6723 74.75 39.3073 73.41 39.3073H71.52V47.5273H73.41ZM81.4655 39.0973C81.2055 39.0973 80.9855 39.0073 80.8055 38.8273C80.6255 38.6473 80.5355 38.4273 80.5355 38.1673C80.5355 37.9073 80.6255 37.6873 80.8055 37.5073C80.9855 37.3273 81.2055 37.2373 81.4655 37.2373C81.7155 37.2373 81.9255 37.3273 82.0955 37.5073C82.2755 37.6873 82.3655 37.9073 82.3655 38.1673C82.3655 38.4273 82.2755 38.6473 82.0955 38.8273C81.9255 39.0073 81.7155 39.0973 81.4655 39.0973ZM82.1255 40.4323V48.6523H80.7605V40.4323H82.1255ZM87.8419 40.2973C88.5519 40.2973 89.1719 40.4523 89.7019 40.7623C90.2419 41.0723 90.6419 41.4623 90.9019 41.9323V40.4323H92.2819V48.8323C92.2819 49.5823 92.1219 50.2473 91.8019 50.8273C91.4819 51.4173 91.0219 51.8773 90.4219 52.2073C89.8319 52.5373 89.1419 52.7023 88.3519 52.7023C87.2719 52.7023 86.3719 52.4473 85.6519 51.9373C84.9319 51.4273 84.5069 50.7323 84.3769 49.8523H85.7269C85.8769 50.3523 86.1869 50.7523 86.6569 51.0523C87.1269 51.3623 87.6919 51.5173 88.3519 51.5173C89.1019 51.5173 89.7119 51.2823 90.1819 50.8123C90.6619 50.3423 90.9019 49.6823 90.9019 48.8323V47.1073C90.6319 47.5873 90.2319 47.9873 89.7019 48.3073C89.1719 48.6273 88.5519 48.7873 87.8419 48.7873C87.1119 48.7873 86.4469 48.6073 85.8469 48.2473C85.2569 47.8873 84.7919 47.3823 84.4519 46.7323C84.1119 46.0823 83.9419 45.3423 83.9419 44.5123C83.9419 43.6723 84.1119 42.9373 84.4519 42.3073C84.7919 41.6673 85.2569 41.1723 85.8469 40.8223C86.4469 40.4723 87.1119 40.2973 87.8419 40.2973ZM90.9019 44.5273C90.9019 43.9073 90.7769 43.3673 90.5269 42.9073C90.2769 42.4473 89.9369 42.0973 89.5069 41.8573C89.0869 41.6073 88.6219 41.4823 88.1119 41.4823C87.6019 41.4823 87.1369 41.6023 86.7169 41.8423C86.2969 42.0823 85.9619 42.4323 85.7119 42.8923C85.4619 43.3523 85.3369 43.8923 85.3369 44.5123C85.3369 45.1423 85.4619 45.6923 85.7119 46.1623C85.9619 46.6223 86.2969 46.9773 86.7169 47.2273C87.1369 47.4673 87.6019 47.5873 88.1119 47.5873C88.6219 47.5873 89.0869 47.4673 89.5069 47.2273C89.9369 46.9773 90.2769 46.6223 90.5269 46.1623C90.7769 45.6923 90.9019 45.1473 90.9019 44.5273ZM95.2936 39.0973C95.0336 39.0973 94.8136 39.0073 94.6336 38.8273C94.4536 38.6473 94.3636 38.4273 94.3636 38.1673C94.3636 37.9073 94.4536 37.6873 94.6336 37.5073C94.8136 37.3273 95.0336 37.2373 95.2936 37.2373C95.5436 37.2373 95.7536 37.3273 95.9236 37.5073C96.1036 37.6873 96.1936 37.9073 96.1936 38.1673C96.1936 38.4273 96.1036 38.6473 95.9236 38.8273C95.7536 39.0073 95.5436 39.0973 95.2936 39.0973ZM95.9536 40.4323V48.6523H94.5886V40.4323H95.9536ZM99.945 41.5573V46.4023C99.945 46.8023 100.03 47.0873 100.2 47.2573C100.37 47.4173 100.665 47.4973 101.085 47.4973H102.09V48.6523H100.86C100.1 48.6523 99.53 48.4773 99.15 48.1273C98.77 47.7773 98.58 47.2023 98.58 46.4023V41.5573H97.515V40.4323H98.58V38.3623H99.945V40.4323H102.09V41.5573H99.945ZM103.234 44.5123C103.234 43.6723 103.404 42.9373 103.744 42.3073C104.084 41.6673 104.549 41.1723 105.139 40.8223C105.739 40.4723 106.404 40.2973 107.134 40.2973C107.854 40.2973 108.479 40.4523 109.009 40.7623C109.539 41.0723 109.934 41.4623 110.194 41.9323V40.4323H111.574V48.6523H110.194V47.1223C109.924 47.6023 109.519 48.0023 108.979 48.3223C108.449 48.6323 107.829 48.7873 107.119 48.7873C106.389 48.7873 105.729 48.6073 105.139 48.2473C104.549 47.8873 104.084 47.3823 103.744 46.7323C103.404 46.0823 103.234 45.3423 103.234 44.5123ZM110.194 44.5273C110.194 43.9073 110.069 43.3673 109.819 42.9073C109.569 42.4473 109.229 42.0973 108.799 41.8573C108.379 41.6073 107.914 41.4823 107.404 41.4823C106.894 41.4823 106.429 41.6023 106.009 41.8423C105.589 42.0823 105.254 42.4323 105.004 42.8923C104.754 43.3523 104.629 43.8923 104.629 44.5123C104.629 45.1423 104.754 45.6923 105.004 46.1623C105.254 46.6223 105.589 46.9773 106.009 47.2273C106.429 47.4673 106.894 47.5873 107.404 47.5873C107.914 47.5873 108.379 47.4673 108.799 47.2273C109.229 46.9773 109.569 46.6223 109.819 46.1623C110.069 45.6923 110.194 45.1473 110.194 44.5273ZM115.246 37.5523V48.6523H113.881V37.5523H115.246ZM134.711 38.1973L131.681 48.6523H130.151L127.721 40.2373L125.201 48.6523L123.686 48.6673L120.761 38.1973H122.216L124.496 47.0623L127.016 38.1973H128.546L130.946 47.0323L133.241 38.1973H134.711ZM135.695 44.5123C135.695 43.6723 135.865 42.9373 136.205 42.3073C136.545 41.6673 137.01 41.1723 137.6 40.8223C138.2 40.4723 138.865 40.2973 139.595 40.2973C140.315 40.2973 140.94 40.4523 141.47 40.7623C142 41.0723 142.395 41.4623 142.655 41.9323V40.4323H144.035V48.6523H142.655V47.1223C142.385 47.6023 141.98 48.0023 141.44 48.3223C140.91 48.6323 140.29 48.7873 139.58 48.7873C138.85 48.7873 138.19 48.6073 137.6 48.2473C137.01 47.8873 136.545 47.3823 136.205 46.7323C135.865 46.0823 135.695 45.3423 135.695 44.5123ZM142.655 44.5273C142.655 43.9073 142.53 43.3673 142.28 42.9073C142.03 42.4473 141.69 42.0973 141.26 41.8573C140.84 41.6073 140.375 41.4823 139.865 41.4823C139.355 41.4823 138.89 41.6023 138.47 41.8423C138.05 42.0823 137.715 42.4323 137.465 42.8923C137.215 43.3523 137.09 43.8923 137.09 44.5123C137.09 45.1423 137.215 45.6923 137.465 46.1623C137.715 46.6223 138.05 46.9773 138.47 47.2273C138.89 47.4673 139.355 47.5873 139.865 47.5873C140.375 47.5873 140.84 47.4673 141.26 47.2273C141.69 46.9773 142.03 46.6223 142.28 46.1623C142.53 45.6923 142.655 45.1473 142.655 44.5273ZM147.707 37.5523V48.6523H146.342V37.5523H147.707ZM151.398 37.5523V48.6523H150.033V37.5523H151.398ZM161.224 44.2273C161.224 44.4873 161.209 44.7623 161.179 45.0523H154.609C154.659 45.8623 154.934 46.4973 155.434 46.9573C155.944 47.4073 156.559 47.6323 157.279 47.6323C157.869 47.6323 158.359 47.4973 158.749 47.2273C159.149 46.9473 159.429 46.5773 159.589 46.1173H161.059C160.839 46.9073 160.399 47.5523 159.739 48.0523C159.079 48.5423 158.259 48.7873 157.279 48.7873C156.499 48.7873 155.799 48.6123 155.179 48.2623C154.569 47.9123 154.089 47.4173 153.739 46.7773C153.389 46.1273 153.214 45.3773 153.214 44.5273C153.214 43.6773 153.384 42.9323 153.724 42.2923C154.064 41.6523 154.539 41.1623 155.149 40.8223C155.769 40.4723 156.479 40.2973 157.279 40.2973C158.059 40.2973 158.749 40.4673 159.349 40.8073C159.949 41.1473 160.409 41.6173 160.729 42.2173C161.059 42.8073 161.224 43.4773 161.224 44.2273ZM159.814 43.9423C159.814 43.4223 159.699 42.9773 159.469 42.6073C159.239 42.2273 158.924 41.9423 158.524 41.7523C158.134 41.5523 157.699 41.4523 157.219 41.4523C156.529 41.4523 155.939 41.6723 155.449 42.1123C154.969 42.5523 154.694 43.1623 154.624 43.9423H159.814ZM164.691 41.5573V46.4023C164.691 46.8023 164.776 47.0873 164.946 47.2573C165.116 47.4173 165.411 47.4973 165.831 47.4973H166.836V48.6523H165.606C164.846 48.6523 164.276 48.4773 163.896 48.1273C163.516 47.7773 163.326 47.2023 163.326 46.4023V41.5573H162.261V40.4323H163.326V38.3623H164.691V40.4323H166.836V41.5573H164.691Z" fill="black"/>
<rect x="26" y="23.6523" width="40" height="39" rx="19.5" fill="#FFC727"/>
<path d="M36.7811 33.6523H50.9503V40.0132H36.7572C35.8735 39.9572 35.0948 39.5472 34.5528 38.924L34.5496 38.9203C34.061 38.3679 33.7626 37.6362 33.7626 36.8344C33.7626 36.7713 33.7644 36.7087 33.768 36.6466L33.7676 36.6552C33.8478 35.032 35.1375 33.7361 36.7457 33.6559L36.7531 33.6556L36.7811 33.6523ZM49.3059 35.3045H36.8378C36.0546 35.3391 35.4299 35.975 35.4088 36.7622V36.7642C35.4077 36.7859 35.407 36.8114 35.407 36.837C35.407 37.2189 35.5503 37.5671 35.7858 37.8304L35.7846 37.829C36.0449 38.1292 36.4146 38.3278 36.8307 38.3615L36.8362 38.3619H49.3059L49.3059 35.3045ZM48.5659 43.1523H52.5125V47.9437H48.5659C47.249 47.9437 46.1815 46.8711 46.1815 45.548V45.5478C46.1815 44.8992 46.438 44.3109 46.8546 43.8795L46.854 43.8801C47.2837 43.4312 47.8865 43.1523 48.5542 43.1523L48.5665 43.1524L48.5659 43.1523ZM50.8681 44.8045H48.5659C48.5626 44.8045 48.5587 44.8044 48.5548 44.8044C48.3514 44.8044 48.1678 44.8896 48.0374 45.0265L48.0372 45.0267C47.9076 45.1617 47.8272 45.3453 47.8259 45.5478V45.548C47.8259 45.9586 48.1572 46.2915 48.5659 46.2915H50.8681V44.8045ZM33.6016 36.8741H35.246C35.2459 36.8801 35.2459 36.8873 35.2459 36.8944C35.2459 37.7284 35.9013 38.4086 36.7228 38.4436L36.726 38.4437H51.6903V39.1872H52.5125V52.6524H35.986C34.6691 52.6524 33.6016 51.5798 33.6016 50.2567V36.8741ZM50.8681 40.0958H36.726C36.1816 40.0929 35.6717 39.9468 35.2311 39.6931L35.246 39.701V50.2567C35.246 50.6673 35.5773 51.0002 35.986 51.0002H50.8681L50.8681 40.0958Z" fill="white"/>
<defs>
<filter id="filter0_d_0_1" x="0" y="0.652344" width="201" height="92" filterUnits="userSpaceOnUse" color-interpolation-filters="sRGB">
<feFlood flood-opacity="0" result="BackgroundImageFix"/>
<feColorMatrix in="SourceAlpha" type="matrix" values="0 0 0 0 0 0 0 0 0 0 0 0 0 0 0 0 0 0 127 0" result="hardAlpha"/>
<feOffset dy="4"/>
<feGaussianBlur stdDeviation="7.5"/>
<feComposite in2="hardAlpha" operator="out"/>
<feColorMatrix type="matrix" values="0 0 0 0 0.616883 0 0 0 0 0.609317 0 0 0 0 0.609317 0 0 0 0.25 0"/>
<feBlend mode="normal" in2="BackgroundImageFix" result="effect1_dropShadow_0_1"/>
<feBlend mode="normal" in="SourceGraphic" in2="effect1_dropShadow_0_1" result="shape"/>
</filter>
</defs>
</svg>
