<svg width="40" height="39" viewBox="0 0 40 39" fill="none" xmlns="http://www.w3.org/2000/svg">
<g filter="url(#filter0_i_53_894)">
<ellipse cx="20.0049" cy="19.4863" rx="18.2823" ry="18.5" fill="white"/>
</g>
<ellipse cx="20.0049" cy="19.4863" rx="18.2823" ry="18.5" stroke="#E8E7F1" stroke-width="1.5"/>
<g clip-path="url(#clip0_53_894)">
<path d="M27.7342 12.3806C27.7282 12.3686 27.7182 12.3593 27.7061 12.3542C26.3067 11.6943 24.8298 11.2237 23.3126 10.9543C23.2988 10.9516 23.2845 10.9535 23.2719 10.9597C23.2592 10.9659 23.2487 10.976 23.242 10.9886C23.0409 11.3637 22.8583 11.749 22.695 12.143C21.0595 11.8879 19.3959 11.8879 17.7604 12.143C17.596 11.748 17.4105 11.3626 17.2048 10.9886C17.1977 10.9763 17.1872 10.9664 17.1746 10.9603C17.162 10.9541 17.1479 10.952 17.1341 10.9543C15.6167 11.2232 14.1398 11.6937 12.7405 12.3542C12.7285 12.3594 12.7184 12.3683 12.7116 12.3797C9.9133 16.6744 9.14674 20.8635 9.52279 25.0008C9.52385 25.0109 9.52688 25.0207 9.5317 25.0296C9.53653 25.0386 9.54305 25.0464 9.55087 25.0526C11.1803 26.2926 13.0028 27.239 14.9407 27.8515C14.9543 27.8557 14.9689 27.8556 14.9824 27.851C14.996 27.8464 15.0078 27.8377 15.0164 27.826C15.4326 27.244 15.8014 26.6277 16.119 25.9834C16.1234 25.9746 16.1259 25.9649 16.1263 25.955C16.1268 25.9451 16.1252 25.9352 16.1217 25.9259C16.1181 25.9167 16.1127 25.9084 16.1058 25.9014C16.0989 25.8945 16.0907 25.8892 16.0816 25.8858C15.5001 25.6571 14.937 25.3814 14.3979 25.0613C14.3881 25.0554 14.3798 25.0471 14.3739 25.0371C14.368 25.0272 14.3645 25.0159 14.3638 25.0042C14.3632 24.9926 14.3653 24.9809 14.3701 24.9703C14.3748 24.9597 14.382 24.9505 14.3911 24.9434C14.5045 24.8563 14.616 24.7665 14.7254 24.6741C14.735 24.666 14.7467 24.6608 14.759 24.6591C14.7713 24.6574 14.7838 24.6593 14.7952 24.6645C18.3277 26.3213 22.152 26.3213 25.6427 24.6645C25.6541 24.6589 25.6668 24.6568 25.6793 24.6584C25.6918 24.6599 25.7036 24.6651 25.7133 24.6733C25.8229 24.7661 25.9347 24.8562 26.0486 24.9434C26.0577 24.9504 26.0649 24.9596 26.0698 24.9701C26.0746 24.9807 26.0768 24.9923 26.0762 25.004C26.0756 25.0156 26.0722 25.027 26.0664 25.037C26.0605 25.047 26.0524 25.0553 26.0426 25.0613C25.5046 25.3841 24.9411 25.6596 24.358 25.8849C24.349 25.8884 24.3408 25.8939 24.3339 25.9009C24.327 25.908 24.3217 25.9164 24.3182 25.9257C24.3148 25.935 24.3133 25.945 24.3138 25.9549C24.3143 25.9648 24.3169 25.9745 24.3213 25.9834C24.6443 26.6241 25.0125 27.2397 25.4231 27.825C25.4314 27.837 25.4432 27.846 25.4568 27.8508C25.4704 27.8555 25.4851 27.8557 25.4988 27.8514C27.4402 27.2409 29.2659 26.2944 30.8973 25.0526C30.9053 25.0467 30.9119 25.0391 30.9167 25.0303C30.9216 25.0215 30.9245 25.0117 30.9254 25.0016C31.3756 20.2186 30.1717 16.0638 27.7342 12.3806ZM16.6466 22.4816C15.583 22.4816 14.7067 21.4786 14.7067 20.2467C14.7067 19.0149 15.566 18.0118 16.6466 18.0118C17.7355 18.0118 18.6034 19.0236 18.5864 20.2467C18.5864 21.4786 17.727 22.4816 16.6466 22.4816ZM23.8188 22.4816C22.7553 22.4816 21.879 21.4786 21.879 20.2467C21.879 19.0149 22.7383 18.0118 23.8188 18.0118C24.9078 18.0118 25.7756 19.0236 25.7586 20.2467C25.7586 21.4786 24.9078 22.4816 23.8188 22.4816Z" fill="#323256"/>
</g>
<defs>
<filter id="filter0_i_53_894" x="-4.42976" y="-15.4798" width="43.4688" height="54.2161" filterUnits="userSpaceOnUse" color-interpolation-filters="sRGB">
<feFlood flood-opacity="0" result="BackgroundImageFix"/>
<feBlend mode="normal" in="SourceGraphic" in2="BackgroundImageFix" result="shape"/>
<feColorMatrix in="SourceAlpha" type="matrix" values="0 0 0 0 0 0 0 0 0 0 0 0 0 0 0 0 0 0 127 0" result="hardAlpha"/>
<feMorphology radius="14.7339" operator="erode" in="SourceAlpha" result="effect1_innerShadow_53_894"/>
<feOffset dx="-5.40242" dy="-15.7161"/>
<feGaussianBlur stdDeviation="9.82258"/>
<feComposite in2="hardAlpha" operator="arithmetic" k2="-1" k3="1"/>
<feColorMatrix type="matrix" values="0 0 0 0 1 0 0 0 0 1 0 0 0 0 1 0 0 0 1 0"/>
<feBlend mode="normal" in2="shape" result="effect1_innerShadow_53_894"/>
</filter>
<clipPath id="clip0_53_894">
<rect width="23.4938" height="19.316" fill="white" transform="translate(8.48047 9.74609)"/>
</clipPath>
</defs>
</svg>
