<svg width="201" height="93" viewBox="0 0 201 93" fill="none" xmlns="http://www.w3.org/2000/svg">
<g filter="url(#filter0_d_0_1)">
<rect x="15" y="11.6523" width="171" height="62" rx="10" fill="white"/>
</g>
<path d="M67.52 39.3073V42.8023H71.33V43.9273H67.52V47.5273H71.78V48.6523H66.155V38.1823H71.78V39.3073H67.52ZM73.3354 44.5123C73.3354 43.6723 73.5054 42.9373 73.8454 42.3073C74.1854 41.6673 74.6504 41.1723 75.2404 40.8223C75.8404 40.4723 76.5054 40.2973 77.2354 40.2973C77.9554 40.2973 78.5804 40.4523 79.1104 40.7623C79.6404 41.0723 80.0354 41.4623 80.2954 41.9323V40.4323H81.6754V48.6523H80.2954V47.1223C80.0254 47.6023 79.6204 48.0023 79.0804 48.3223C78.5504 48.6323 77.9304 48.7873 77.2204 48.7873C76.4904 48.7873 75.8304 48.6073 75.2404 48.2473C74.6504 47.8873 74.1854 47.3823 73.8454 46.7323C73.5054 46.0823 73.3354 45.3423 73.3354 44.5123ZM80.2954 44.5273C80.2954 43.9073 80.1704 43.3673 79.9204 42.9073C79.6704 42.4473 79.3304 42.0973 78.9004 41.8573C78.4804 41.6073 78.0154 41.4823 77.5054 41.4823C76.9954 41.4823 76.5304 41.6023 76.1104 41.8423C75.6904 42.0823 75.3554 42.4323 75.1054 42.8923C74.8554 43.3523 74.7304 43.8923 74.7304 44.5123C74.7304 45.1423 74.8554 45.6923 75.1054 46.1623C75.3554 46.6223 75.6904 46.9773 76.1104 47.2273C76.5304 47.4673 76.9954 47.5873 77.5054 47.5873C78.0154 47.5873 78.4804 47.4673 78.9004 47.2273C79.3304 46.9773 79.6704 46.6223 79.9204 46.1623C80.1704 45.6923 80.2954 45.1473 80.2954 44.5273ZM85.3471 41.7673C85.5871 41.2973 85.9271 40.9323 86.3671 40.6723C86.8171 40.4123 87.3621 40.2823 88.0021 40.2823V41.6923H87.6421C86.1121 41.6923 85.3471 42.5223 85.3471 44.1823V48.6523H83.9821V40.4323H85.3471V41.7673ZM93.5829 40.2823C94.5829 40.2823 95.3929 40.5873 96.0129 41.1973C96.6329 41.7973 96.9429 42.6673 96.9429 43.8073V48.6523H95.5929V44.0023C95.5929 43.1823 95.3879 42.5573 94.9779 42.1273C94.5679 41.6873 94.0079 41.4673 93.2979 41.4673C92.5779 41.4673 92.0029 41.6923 91.5729 42.1423C91.1529 42.5923 90.9429 43.2473 90.9429 44.1073V48.6523H89.5779V40.4323H90.9429V41.6023C91.2129 41.1823 91.5779 40.8573 92.0379 40.6273C92.5079 40.3973 93.0229 40.2823 93.5829 40.2823ZM110.462 40.4323V48.6523H109.097V47.4373C108.837 47.8573 108.472 48.1873 108.002 48.4273C107.542 48.6573 107.032 48.7723 106.472 48.7723C105.832 48.7723 105.257 48.6423 104.747 48.3823C104.237 48.1123 103.832 47.7123 103.532 47.1823C103.242 46.6523 103.097 46.0073 103.097 45.2473V40.4323H104.447V45.0673C104.447 45.8773 104.652 46.5023 105.062 46.9423C105.472 47.3723 106.032 47.5873 106.742 47.5873C107.472 47.5873 108.047 47.3623 108.467 46.9123C108.887 46.4623 109.097 45.8073 109.097 44.9473V40.4323H110.462ZM114.131 41.9473C114.401 41.4773 114.801 41.0873 115.331 40.7773C115.871 40.4573 116.496 40.2973 117.206 40.2973C117.936 40.2973 118.596 40.4723 119.186 40.8223C119.786 41.1723 120.256 41.6673 120.596 42.3073C120.936 42.9373 121.106 43.6723 121.106 44.5123C121.106 45.3423 120.936 46.0823 120.596 46.7323C120.256 47.3823 119.786 47.8873 119.186 48.2473C118.596 48.6073 117.936 48.7873 117.206 48.7873C116.506 48.7873 115.886 48.6323 115.346 48.3223C114.816 48.0023 114.411 47.6073 114.131 47.1373V52.5523H112.766V40.4323H114.131V41.9473ZM119.711 44.5123C119.711 43.8923 119.586 43.3523 119.336 42.8923C119.086 42.4323 118.746 42.0823 118.316 41.8423C117.896 41.6023 117.431 41.4823 116.921 41.4823C116.421 41.4823 115.956 41.6073 115.526 41.8573C115.106 42.0973 114.766 42.4523 114.506 42.9223C114.256 43.3823 114.131 43.9173 114.131 44.5273C114.131 45.1473 114.256 45.6923 114.506 46.1623C114.766 46.6223 115.106 46.9773 115.526 47.2273C115.956 47.4673 116.421 47.5873 116.921 47.5873C117.431 47.5873 117.896 47.4673 118.316 47.2273C118.746 46.9773 119.086 46.6223 119.336 46.1623C119.586 45.6923 119.711 45.1423 119.711 44.5123ZM128.567 41.5573V46.4023C128.567 46.8023 128.652 47.0873 128.822 47.2573C128.992 47.4173 129.287 47.4973 129.707 47.4973H130.712V48.6523H129.482C128.722 48.6523 128.152 48.4773 127.772 48.1273C127.392 47.7773 127.202 47.2023 127.202 46.4023V41.5573H126.137V40.4323H127.202V38.3623H128.567V40.4323H130.712V41.5573H128.567ZM135.951 48.7873C135.181 48.7873 134.481 48.6123 133.851 48.2623C133.231 47.9123 132.741 47.4173 132.381 46.7773C132.031 46.1273 131.856 45.3773 131.856 44.5273C131.856 43.6873 132.036 42.9473 132.396 42.3073C132.766 41.6573 133.266 41.1623 133.896 40.8223C134.526 40.4723 135.231 40.2973 136.011 40.2973C136.791 40.2973 137.496 40.4723 138.126 40.8223C138.756 41.1623 139.251 41.6523 139.611 42.2923C139.981 42.9323 140.166 43.6773 140.166 44.5273C140.166 45.3773 139.976 46.1273 139.596 46.7773C139.226 47.4173 138.721 47.9123 138.081 48.2623C137.441 48.6123 136.731 48.7873 135.951 48.7873ZM135.951 47.5873C136.441 47.5873 136.901 47.4723 137.331 47.2423C137.761 47.0123 138.106 46.6673 138.366 46.2073C138.636 45.7473 138.771 45.1873 138.771 44.5273C138.771 43.8673 138.641 43.3073 138.381 42.8473C138.121 42.3873 137.781 42.0473 137.361 41.8273C136.941 41.5973 136.486 41.4823 135.996 41.4823C135.496 41.4823 135.036 41.5973 134.616 41.8273C134.206 42.0473 133.876 42.3873 133.626 42.8473C133.376 43.3073 133.251 43.8673 133.251 44.5273C133.251 45.1973 133.371 45.7623 133.611 46.2223C133.861 46.6823 134.191 47.0273 134.601 47.2573C135.011 47.4773 135.461 47.5873 135.951 47.5873ZM152.41 38.8723L148.24 48.6523H146.86L151.09 39.0073H145.3V37.8373H152.41V38.8723ZM153.923 43.1173C153.923 41.3973 154.203 40.0573 154.763 39.0973C155.323 38.1273 156.303 37.6423 157.703 37.6423C159.093 37.6423 160.068 38.1273 160.628 39.0973C161.188 40.0573 161.468 41.3973 161.468 43.1173C161.468 44.8673 161.188 46.2273 160.628 47.1973C160.068 48.1673 159.093 48.6523 157.703 48.6523C156.303 48.6523 155.323 48.1673 154.763 47.1973C154.203 46.2273 153.923 44.8673 153.923 43.1173ZM160.118 43.1173C160.118 42.2473 160.058 41.5123 159.938 40.9123C159.828 40.3023 159.593 39.8123 159.233 39.4423C158.883 39.0723 158.373 38.8873 157.703 38.8873C157.023 38.8873 156.503 39.0723 156.143 39.4423C155.793 39.8123 155.558 40.3023 155.438 40.9123C155.328 41.5123 155.273 42.2473 155.273 43.1173C155.273 44.0173 155.328 44.7723 155.438 45.3823C155.558 45.9923 155.793 46.4823 156.143 46.8523C156.503 47.2223 157.023 47.4073 157.703 47.4073C158.373 47.4073 158.883 47.2223 159.233 46.8523C159.593 46.4823 159.828 45.9923 159.938 45.3823C160.058 44.7723 160.118 44.0173 160.118 43.1173ZM163.042 40.2523C163.042 39.5723 163.247 39.0323 163.657 38.6323C164.067 38.2223 164.592 38.0173 165.232 38.0173C165.872 38.0173 166.397 38.2223 166.807 38.6323C167.217 39.0323 167.422 39.5723 167.422 40.2523C167.422 40.9423 167.217 41.4923 166.807 41.9023C166.397 42.3023 165.872 42.5023 165.232 42.5023C164.592 42.5023 164.067 42.3023 163.657 41.9023C163.247 41.4923 163.042 40.9423 163.042 40.2523ZM171.802 38.1823L165.727 48.6523H164.377L170.452 38.1823H171.802ZM165.232 38.8573C164.892 38.8573 164.622 38.9773 164.422 39.2173C164.232 39.4473 164.137 39.7923 164.137 40.2523C164.137 40.7123 164.232 41.0623 164.422 41.3023C164.622 41.5423 164.892 41.6623 165.232 41.6623C165.572 41.6623 165.842 41.5423 166.042 41.3023C166.242 41.0523 166.342 40.7023 166.342 40.2523C166.342 39.7923 166.242 39.4473 166.042 39.2173C165.842 38.9773 165.572 38.8573 165.232 38.8573ZM168.787 46.5823C168.787 45.8923 168.992 45.3473 169.402 44.9473C169.812 44.5373 170.337 44.3323 170.977 44.3323C171.617 44.3323 172.137 44.5373 172.537 44.9473C172.947 45.3473 173.152 45.8923 173.152 46.5823C173.152 47.2623 172.947 47.8073 172.537 48.2173C172.137 48.6273 171.617 48.8323 170.977 48.8323C170.337 48.8323 169.812 48.6323 169.402 48.2323C168.992 47.8223 168.787 47.2723 168.787 46.5823ZM170.962 45.1873C170.622 45.1873 170.352 45.3073 170.152 45.5473C169.952 45.7773 169.852 46.1223 169.852 46.5823C169.852 47.0323 169.952 47.3773 170.152 47.6173C170.352 47.8473 170.622 47.9623 170.962 47.9623C171.302 47.9623 171.572 47.8473 171.772 47.6173C171.972 47.3773 172.072 47.0323 172.072 46.5823C172.072 46.1223 171.972 45.7773 171.772 45.5473C171.572 45.3073 171.302 45.1873 170.962 45.1873Z" fill="black"/>
<rect x="23" y="23.6523" width="40" height="39" rx="19.5" fill="#0170E3"/>
<path d="M47.3891 47.9857V48.8746C47.3891 49.8523 46.5877 50.6523 45.6081 50.6523H33.1405C32.152 50.6523 31.3594 49.8523 31.3594 48.8746V36.4301C31.3594 35.4523 32.152 34.6523 33.1405 34.6523H45.6081C46.5877 34.6523 47.3891 35.4523 47.3891 36.4301V37.319H39.3743C38.3858 37.319 37.5932 38.119 37.5932 39.0968V46.2079C37.5932 47.1857 38.3858 47.9857 39.3743 47.9857H47.3891ZM39.3743 46.2079H48.2797V39.0968H39.3743V46.2079ZM42.9364 43.9857C42.1973 43.9857 41.6006 43.3901 41.6006 42.6523C41.6006 41.9146 42.1973 41.319 42.9364 41.319C43.6756 41.319 44.2722 41.9146 44.2722 42.6523C44.2722 43.3901 43.6756 43.9857 42.9364 43.9857Z" fill="white"/>
<defs>
<filter id="filter0_d_0_1" x="0" y="0.652344" width="201" height="92" filterUnits="userSpaceOnUse" color-interpolation-filters="sRGB">
<feFlood flood-opacity="0" result="BackgroundImageFix"/>
<feColorMatrix in="SourceAlpha" type="matrix" values="0 0 0 0 0 0 0 0 0 0 0 0 0 0 0 0 0 0 127 0" result="hardAlpha"/>
<feOffset dy="4"/>
<feGaussianBlur stdDeviation="7.5"/>
<feComposite in2="hardAlpha" operator="out"/>
<feColorMatrix type="matrix" values="0 0 0 0 0.616883 0 0 0 0 0.609317 0 0 0 0 0.609317 0 0 0 0.25 0"/>
<feBlend mode="normal" in2="BackgroundImageFix" result="effect1_dropShadow_0_1"/>
<feBlend mode="normal" in="SourceGraphic" in2="effect1_dropShadow_0_1" result="shape"/>
</filter>
</defs>
</svg>
