<svg width="29" height="32" viewBox="0 0 29 32" fill="none" xmlns="http://www.w3.org/2000/svg">
<g clip-path="url(#clip0_1961_526)">
<rect x="-16" y="-11" width="60.0769" height="51.4482" rx="5" fill="#455A64"/>
<path d="M0 32H14.5V0H0V32ZM9.0625 4H12.6875V8H9.0625V4ZM9.0625 12H12.6875V16H9.0625V12ZM9.0625 20H12.6875V24H9.0625V20ZM1.8125 4H5.4375V8H1.8125V4ZM1.8125 12H5.4375V16H1.8125V12ZM1.8125 20H5.4375V24H1.8125V20ZM16.3125 10H29V12H16.3125V10ZM16.3125 32H19.9375V24H25.375V32H29V14H16.3125V32Z" fill="white"/>
</g>
<defs>
<clipPath id="clip0_1961_526">
<rect width="29" height="32" fill="white"/>
</clipPath>
</defs>
</svg>
