<svg width="305" height="64" viewBox="0 0 305 64" fill="none" xmlns="http://www.w3.org/2000/svg">
<g filter="url(#filter0_d_0_1)">
<rect x="4" y="2" width="297" height="56" rx="10" fill="#0170E3"/>
</g>
<path d="M100.125 26.625C99.6417 25.6083 98.9417 24.825 98.025 24.275C97.1083 23.7083 96.0417 23.425 94.825 23.425C93.6083 23.425 92.5083 23.7083 91.525 24.275C90.5583 24.825 89.7917 25.625 89.225 26.675C88.675 27.7083 88.4 28.9083 88.4 30.275C88.4 31.6417 88.675 32.8417 89.225 33.875C89.7917 34.9083 90.5583 35.7083 91.525 36.275C92.5083 36.825 93.6083 37.1 94.825 37.1C96.525 37.1 97.925 36.5917 99.025 35.575C100.125 34.5583 100.767 33.1833 100.95 31.45H94V29.6H103.375V31.35C103.242 32.7833 102.792 34.1 102.025 35.3C101.258 36.4833 100.25 37.425 99 38.125C97.75 38.8083 96.3583 39.15 94.825 39.15C93.2083 39.15 91.7333 38.775 90.4 38.025C89.0667 37.2583 88.0083 36.2 87.225 34.85C86.4583 33.5 86.075 31.975 86.075 30.275C86.075 28.575 86.4583 27.05 87.225 25.7C88.0083 24.3333 89.0667 23.275 90.4 22.525C91.7333 21.7583 93.2083 21.375 94.825 21.375C96.675 21.375 98.3083 21.8333 99.725 22.75C101.158 23.6667 102.2 24.9583 102.85 26.625H100.125ZM118.883 31.625C118.883 32.0583 118.858 32.5167 118.808 33H107.858C107.941 34.35 108.4 35.4083 109.233 36.175C110.083 36.925 111.108 37.3 112.308 37.3C113.291 37.3 114.108 37.075 114.758 36.625C115.425 36.1583 115.891 35.5417 116.158 34.775H118.608C118.241 36.0917 117.508 37.1667 116.408 38C115.308 38.8167 113.941 39.225 112.308 39.225C111.008 39.225 109.841 38.9333 108.808 38.35C107.791 37.7667 106.991 36.9417 106.408 35.875C105.825 34.7917 105.533 33.5417 105.533 32.125C105.533 30.7083 105.816 29.4667 106.383 28.4C106.95 27.3333 107.741 26.5167 108.758 25.95C109.791 25.3667 110.975 25.075 112.308 25.075C113.608 25.075 114.758 25.3583 115.758 25.925C116.758 26.4917 117.525 27.275 118.058 28.275C118.608 29.2583 118.883 30.375 118.883 31.625ZM116.533 31.15C116.533 30.2833 116.341 29.5417 115.958 28.925C115.575 28.2917 115.05 27.8167 114.383 27.5C113.733 27.1667 113.008 27 112.208 27C111.058 27 110.075 27.3667 109.258 28.1C108.458 28.8333 108 29.85 107.883 31.15H116.533ZM124.661 27.175V35.25C124.661 35.9167 124.803 36.3917 125.086 36.675C125.369 36.9417 125.861 37.075 126.561 37.075H128.236V39H126.186C124.919 39 123.969 38.7083 123.336 38.125C122.703 37.5417 122.386 36.5833 122.386 35.25V27.175H120.611V25.3H122.386V21.85H124.661V25.3H128.236V27.175H124.661ZM143.632 39.225C142.349 39.225 141.182 38.9333 140.132 38.35C139.099 37.7667 138.282 36.9417 137.682 35.875C137.099 34.7917 136.807 33.5417 136.807 32.125C136.807 30.725 137.107 29.4917 137.707 28.425C138.324 27.3417 139.157 26.5167 140.207 25.95C141.257 25.3667 142.432 25.075 143.732 25.075C145.032 25.075 146.207 25.3667 147.257 25.95C148.307 26.5167 149.132 27.3333 149.732 28.4C150.349 29.4667 150.657 30.7083 150.657 32.125C150.657 33.5417 150.341 34.7917 149.707 35.875C149.091 36.9417 148.249 37.7667 147.182 38.35C146.116 38.9333 144.932 39.225 143.632 39.225ZM143.632 37.225C144.449 37.225 145.216 37.0333 145.932 36.65C146.649 36.2667 147.224 35.6917 147.657 34.925C148.107 34.1583 148.332 33.225 148.332 32.125C148.332 31.025 148.116 30.0917 147.682 29.325C147.249 28.5583 146.682 27.9917 145.982 27.625C145.282 27.2417 144.524 27.05 143.707 27.05C142.874 27.05 142.107 27.2417 141.407 27.625C140.724 27.9917 140.174 28.5583 139.757 29.325C139.341 30.0917 139.132 31.025 139.132 32.125C139.132 33.2417 139.332 34.1833 139.732 34.95C140.149 35.7167 140.699 36.2917 141.382 36.675C142.066 37.0417 142.816 37.225 143.632 37.225ZM160.324 25.05C161.99 25.05 163.34 25.5583 164.374 26.575C165.407 27.575 165.924 29.025 165.924 30.925V39H163.674V31.25C163.674 29.8833 163.332 28.8417 162.649 28.125C161.965 27.3917 161.032 27.025 159.849 27.025C158.649 27.025 157.69 27.4 156.974 28.15C156.274 28.9 155.924 29.9917 155.924 31.425V39H153.649V25.3H155.924V27.25C156.374 26.55 156.982 26.0083 157.749 25.625C158.532 25.2417 159.39 25.05 160.324 25.05ZM177.48 23.075C177.047 23.075 176.68 22.925 176.38 22.625C176.08 22.325 175.93 21.9583 175.93 21.525C175.93 21.0917 176.08 20.725 176.38 20.425C176.68 20.125 177.047 19.975 177.48 19.975C177.897 19.975 178.247 20.125 178.53 20.425C178.83 20.725 178.98 21.0917 178.98 21.525C178.98 21.9583 178.83 22.325 178.53 22.625C178.247 22.925 177.897 23.075 177.48 23.075ZM178.58 25.3V39H176.305V25.3H178.58ZM194.107 26.675C194.107 28.125 193.607 29.3333 192.607 30.3C191.624 31.25 190.116 31.725 188.082 31.725H184.732V39H182.457V21.575H188.082C190.049 21.575 191.541 22.05 192.557 23C193.591 23.95 194.107 25.175 194.107 26.675ZM188.082 29.85C189.349 29.85 190.282 29.575 190.882 29.025C191.482 28.475 191.782 27.6917 191.782 26.675C191.782 24.525 190.549 23.45 188.082 23.45H184.732V29.85H188.082ZM203.735 25.05C204.768 25.05 205.701 25.275 206.535 25.725C207.368 26.1583 208.018 26.8167 208.485 27.7C208.968 28.5833 209.21 29.6583 209.21 30.925V39H206.96V31.25C206.96 29.8833 206.618 28.8417 205.935 28.125C205.251 27.3917 204.318 27.025 203.135 27.025C201.935 27.025 200.976 27.4 200.26 28.15C199.56 28.9 199.21 29.9917 199.21 31.425V39H196.935V20.5H199.21V27.25C199.66 26.55 200.276 26.0083 201.06 25.625C201.86 25.2417 202.751 25.05 203.735 25.05ZM218.901 39.225C217.618 39.225 216.451 38.9333 215.401 38.35C214.368 37.7667 213.551 36.9417 212.951 35.875C212.368 34.7917 212.076 33.5417 212.076 32.125C212.076 30.725 212.376 29.4917 212.976 28.425C213.593 27.3417 214.426 26.5167 215.476 25.95C216.526 25.3667 217.701 25.075 219.001 25.075C220.301 25.075 221.476 25.3667 222.526 25.95C223.576 26.5167 224.401 27.3333 225.001 28.4C225.618 29.4667 225.926 30.7083 225.926 32.125C225.926 33.5417 225.609 34.7917 224.976 35.875C224.359 36.9417 223.518 37.7667 222.451 38.35C221.384 38.9333 220.201 39.225 218.901 39.225ZM218.901 37.225C219.718 37.225 220.484 37.0333 221.201 36.65C221.918 36.2667 222.493 35.6917 222.926 34.925C223.376 34.1583 223.601 33.225 223.601 32.125C223.601 31.025 223.384 30.0917 222.951 29.325C222.518 28.5583 221.951 27.9917 221.251 27.625C220.551 27.2417 219.793 27.05 218.976 27.05C218.143 27.05 217.376 27.2417 216.676 27.625C215.993 27.9917 215.443 28.5583 215.026 29.325C214.609 30.0917 214.401 31.025 214.401 32.125C214.401 33.2417 214.601 34.1833 215.001 34.95C215.418 35.7167 215.968 36.2917 216.651 36.675C217.334 37.0417 218.084 37.225 218.901 37.225ZM235.592 25.05C237.259 25.05 238.609 25.5583 239.642 26.575C240.676 27.575 241.192 29.025 241.192 30.925V39H238.942V31.25C238.942 29.8833 238.601 28.8417 237.917 28.125C237.234 27.3917 236.301 27.025 235.117 27.025C233.917 27.025 232.959 27.4 232.242 28.15C231.542 28.9 231.192 29.9917 231.192 31.425V39H228.917V25.3H231.192V27.25C231.642 26.55 232.251 26.0083 233.017 25.625C233.801 25.2417 234.659 25.05 235.592 25.05ZM257.408 31.625C257.408 32.0583 257.383 32.5167 257.333 33H246.383C246.467 34.35 246.925 35.4083 247.758 36.175C248.608 36.925 249.633 37.3 250.833 37.3C251.817 37.3 252.633 37.075 253.283 36.625C253.95 36.1583 254.417 35.5417 254.683 34.775H257.133C256.767 36.0917 256.033 37.1667 254.933 38C253.833 38.8167 252.467 39.225 250.833 39.225C249.533 39.225 248.367 38.9333 247.333 38.35C246.317 37.7667 245.517 36.9417 244.933 35.875C244.35 34.7917 244.058 33.5417 244.058 32.125C244.058 30.7083 244.342 29.4667 244.908 28.4C245.475 27.3333 246.267 26.5167 247.283 25.95C248.317 25.3667 249.5 25.075 250.833 25.075C252.133 25.075 253.283 25.3583 254.283 25.925C255.283 26.4917 256.05 27.275 256.583 28.275C257.133 29.2583 257.408 30.375 257.408 31.625ZM255.058 31.15C255.058 30.2833 254.867 29.5417 254.483 28.925C254.1 28.2917 253.575 27.8167 252.908 27.5C252.258 27.1667 251.533 27 250.733 27C249.583 27 248.6 27.3667 247.783 28.1C246.983 28.8333 246.525 29.85 246.408 31.15H255.058Z" fill="white"/>
<path d="M53.6791 44.87C51.8007 46.6908 49.7499 46.4033 47.7757 45.5408C45.6866 44.6592 43.7699 44.6208 41.5657 45.5408C38.8057 46.7292 37.3491 46.3842 35.7007 44.87C26.3474 35.2292 27.7274 20.5475 38.3457 20.0108C40.9332 20.145 42.7349 21.4292 44.2491 21.5442C46.5107 21.0842 48.6766 19.7617 51.0916 19.9342C53.9857 20.1642 56.1707 21.3142 57.6082 23.3842C51.6282 26.9683 53.0466 34.8458 58.5282 37.05C57.4357 39.925 56.0174 42.7808 53.6599 44.8892L53.6791 44.87ZM44.0574 19.8958C43.7699 15.6217 47.2391 12.095 51.2257 11.75C51.7816 16.695 46.7407 20.375 44.0574 19.8958Z" fill="white"/>
<defs>
<filter id="filter0_d_0_1" x="0" y="0" width="305" height="64" filterUnits="userSpaceOnUse" color-interpolation-filters="sRGB">
<feFlood flood-opacity="0" result="BackgroundImageFix"/>
<feColorMatrix in="SourceAlpha" type="matrix" values="0 0 0 0 0 0 0 0 0 0 0 0 0 0 0 0 0 0 127 0" result="hardAlpha"/>
<feOffset dy="2"/>
<feGaussianBlur stdDeviation="2"/>
<feComposite in2="hardAlpha" operator="out"/>
<feColorMatrix type="matrix" values="0 0 0 0 0 0 0 0 0 0 0 0 0 0 0 0 0 0 0.25 0"/>
<feBlend mode="normal" in2="BackgroundImageFix" result="effect1_dropShadow_0_1"/>
<feBlend mode="normal" in="SourceGraphic" in2="effect1_dropShadow_0_1" result="shape"/>
</filter>
</defs>
</svg>
