<svg width="305" height="64" viewBox="0 0 305 64" fill="none" xmlns="http://www.w3.org/2000/svg">
<g filter="url(#filter0_d_0_1)">
<rect x="4" y="2" width="297" height="56" rx="10" fill="#0170E3"/>
</g>
<path d="M97.125 26.625C96.6417 25.6083 95.9417 24.825 95.025 24.275C94.1083 23.7083 93.0417 23.425 91.825 23.425C90.6083 23.425 89.5083 23.7083 88.525 24.275C87.5583 24.825 86.7917 25.625 86.225 26.675C85.675 27.7083 85.4 28.9083 85.4 30.275C85.4 31.6417 85.675 32.8417 86.225 33.875C86.7917 34.9083 87.5583 35.7083 88.525 36.275C89.5083 36.825 90.6083 37.1 91.825 37.1C93.525 37.1 94.925 36.5917 96.025 35.575C97.125 34.5583 97.7667 33.1833 97.95 31.45H91V29.6H100.375V31.35C100.242 32.7833 99.7917 34.1 99.025 35.3C98.2583 36.4833 97.25 37.425 96 38.125C94.75 38.8083 93.3583 39.15 91.825 39.15C90.2083 39.15 88.7333 38.775 87.4 38.025C86.0667 37.2583 85.0083 36.2 84.225 34.85C83.4583 33.5 83.075 31.975 83.075 30.275C83.075 28.575 83.4583 27.05 84.225 25.7C85.0083 24.3333 86.0667 23.275 87.4 22.525C88.7333 21.7583 90.2083 21.375 91.825 21.375C93.675 21.375 95.3083 21.8333 96.725 22.75C98.1583 23.6667 99.2 24.9583 99.85 26.625H97.125ZM115.883 31.625C115.883 32.0583 115.858 32.5167 115.808 33H104.858C104.941 34.35 105.4 35.4083 106.233 36.175C107.083 36.925 108.108 37.3 109.308 37.3C110.291 37.3 111.108 37.075 111.758 36.625C112.425 36.1583 112.891 35.5417 113.158 34.775H115.608C115.241 36.0917 114.508 37.1667 113.408 38C112.308 38.8167 110.941 39.225 109.308 39.225C108.008 39.225 106.841 38.9333 105.808 38.35C104.791 37.7667 103.991 36.9417 103.408 35.875C102.825 34.7917 102.533 33.5417 102.533 32.125C102.533 30.7083 102.816 29.4667 103.383 28.4C103.95 27.3333 104.741 26.5167 105.758 25.95C106.791 25.3667 107.975 25.075 109.308 25.075C110.608 25.075 111.758 25.3583 112.758 25.925C113.758 26.4917 114.525 27.275 115.058 28.275C115.608 29.2583 115.883 30.375 115.883 31.625ZM113.533 31.15C113.533 30.2833 113.341 29.5417 112.958 28.925C112.575 28.2917 112.05 27.8167 111.383 27.5C110.733 27.1667 110.008 27 109.208 27C108.058 27 107.075 27.3667 106.258 28.1C105.458 28.8333 105 29.85 104.883 31.15H113.533ZM121.661 27.175V35.25C121.661 35.9167 121.803 36.3917 122.086 36.675C122.369 36.9417 122.861 37.075 123.561 37.075H125.236V39H123.186C121.919 39 120.969 38.7083 120.336 38.125C119.703 37.5417 119.386 36.5833 119.386 35.25V27.175H117.611V25.3H119.386V21.85H121.661V25.3H125.236V27.175H121.661ZM140.632 39.225C139.349 39.225 138.182 38.9333 137.132 38.35C136.099 37.7667 135.282 36.9417 134.682 35.875C134.099 34.7917 133.807 33.5417 133.807 32.125C133.807 30.725 134.107 29.4917 134.707 28.425C135.324 27.3417 136.157 26.5167 137.207 25.95C138.257 25.3667 139.432 25.075 140.732 25.075C142.032 25.075 143.207 25.3667 144.257 25.95C145.307 26.5167 146.132 27.3333 146.732 28.4C147.349 29.4667 147.657 30.7083 147.657 32.125C147.657 33.5417 147.341 34.7917 146.707 35.875C146.091 36.9417 145.249 37.7667 144.182 38.35C143.116 38.9333 141.932 39.225 140.632 39.225ZM140.632 37.225C141.449 37.225 142.216 37.0333 142.932 36.65C143.649 36.2667 144.224 35.6917 144.657 34.925C145.107 34.1583 145.332 33.225 145.332 32.125C145.332 31.025 145.116 30.0917 144.682 29.325C144.249 28.5583 143.682 27.9917 142.982 27.625C142.282 27.2417 141.524 27.05 140.707 27.05C139.874 27.05 139.107 27.2417 138.407 27.625C137.724 27.9917 137.174 28.5583 136.757 29.325C136.341 30.0917 136.132 31.025 136.132 32.125C136.132 33.2417 136.332 34.1833 136.732 34.95C137.149 35.7167 137.699 36.2917 138.382 36.675C139.066 37.0417 139.816 37.225 140.632 37.225ZM157.324 25.05C158.99 25.05 160.34 25.5583 161.374 26.575C162.407 27.575 162.924 29.025 162.924 30.925V39H160.674V31.25C160.674 29.8833 160.332 28.8417 159.649 28.125C158.965 27.3917 158.032 27.025 156.849 27.025C155.649 27.025 154.69 27.4 153.974 28.15C153.274 28.9 152.924 29.9917 152.924 31.425V39H150.649V25.3H152.924V27.25C153.374 26.55 153.982 26.0083 154.749 25.625C155.532 25.2417 156.39 25.05 157.324 25.05ZM183.605 35.125H176.005L174.605 39H172.205L178.505 21.675H181.13L187.405 39H185.005L183.605 35.125ZM182.955 33.275L179.805 24.475L176.655 33.275H182.955ZM196.826 25.05C198.492 25.05 199.842 25.5583 200.876 26.575C201.909 27.575 202.426 29.025 202.426 30.925V39H200.176V31.25C200.176 29.8833 199.834 28.8417 199.151 28.125C198.467 27.3917 197.534 27.025 196.351 27.025C195.151 27.025 194.192 27.4 193.476 28.15C192.776 28.9 192.426 29.9917 192.426 31.425V39H190.151V25.3H192.426V27.25C192.876 26.55 193.484 26.0083 194.251 25.625C195.034 25.2417 195.892 25.05 196.826 25.05ZM205.292 32.1C205.292 30.7 205.575 29.475 206.142 28.425C206.708 27.3583 207.483 26.5333 208.467 25.95C209.467 25.3667 210.583 25.075 211.817 25.075C212.883 25.075 213.875 25.325 214.792 25.825C215.708 26.3083 216.408 26.95 216.892 27.75V20.5H219.192V39H216.892V36.425C216.442 37.2417 215.775 37.9167 214.892 38.45C214.008 38.9667 212.975 39.225 211.792 39.225C210.575 39.225 209.467 38.925 208.467 38.325C207.483 37.725 206.708 36.8833 206.142 35.8C205.575 34.7167 205.292 33.4833 205.292 32.1ZM216.892 32.125C216.892 31.0917 216.683 30.1917 216.267 29.425C215.85 28.6583 215.283 28.075 214.567 27.675C213.867 27.2583 213.092 27.05 212.242 27.05C211.392 27.05 210.617 27.25 209.917 27.65C209.217 28.05 208.658 28.6333 208.242 29.4C207.825 30.1667 207.617 31.0667 207.617 32.1C207.617 33.15 207.825 34.0667 208.242 34.85C208.658 35.6167 209.217 36.2083 209.917 36.625C210.617 37.025 211.392 37.225 212.242 37.225C213.092 37.225 213.867 37.025 214.567 36.625C215.283 36.2083 215.85 35.6167 216.267 34.85C216.683 34.0667 216.892 33.1583 216.892 32.125ZM225.311 27.525C225.711 26.7417 226.278 26.1333 227.011 25.7C227.761 25.2667 228.67 25.05 229.736 25.05V27.4H229.136C226.586 27.4 225.311 28.7833 225.311 31.55V39H223.036V25.3H225.311V27.525ZM238.338 39.225C237.054 39.225 235.888 38.9333 234.838 38.35C233.804 37.7667 232.988 36.9417 232.388 35.875C231.804 34.7917 231.513 33.5417 231.513 32.125C231.513 30.725 231.813 29.4917 232.413 28.425C233.029 27.3417 233.863 26.5167 234.913 25.95C235.963 25.3667 237.138 25.075 238.438 25.075C239.738 25.075 240.913 25.3667 241.963 25.95C243.013 26.5167 243.838 27.3333 244.438 28.4C245.054 29.4667 245.363 30.7083 245.363 32.125C245.363 33.5417 245.046 34.7917 244.413 35.875C243.796 36.9417 242.954 37.7667 241.888 38.35C240.821 38.9333 239.638 39.225 238.338 39.225ZM238.338 37.225C239.154 37.225 239.921 37.0333 240.638 36.65C241.354 36.2667 241.929 35.6917 242.363 34.925C242.813 34.1583 243.038 33.225 243.038 32.125C243.038 31.025 242.821 30.0917 242.388 29.325C241.954 28.5583 241.388 27.9917 240.688 27.625C239.988 27.2417 239.229 27.05 238.413 27.05C237.579 27.05 236.813 27.2417 236.113 27.625C235.429 27.9917 234.879 28.5583 234.463 29.325C234.046 30.0917 233.838 31.025 233.838 32.125C233.838 33.2417 234.038 34.1833 234.438 34.95C234.854 35.7167 235.404 36.2917 236.088 36.675C236.771 37.0417 237.521 37.225 238.338 37.225ZM249.529 23.075C249.095 23.075 248.729 22.925 248.429 22.625C248.129 22.325 247.979 21.9583 247.979 21.525C247.979 21.0917 248.129 20.725 248.429 20.425C248.729 20.125 249.095 19.975 249.529 19.975C249.945 19.975 250.295 20.125 250.579 20.425C250.879 20.725 251.029 21.0917 251.029 21.525C251.029 21.9583 250.879 22.325 250.579 22.625C250.295 22.925 249.945 23.075 249.529 23.075ZM250.629 25.3V39H248.354V25.3H250.629ZM253.656 32.1C253.656 30.7 253.939 29.475 254.506 28.425C255.073 27.3583 255.848 26.5333 256.831 25.95C257.831 25.3667 258.948 25.075 260.181 25.075C261.248 25.075 262.239 25.325 263.156 25.825C264.073 26.3083 264.773 26.95 265.256 27.75V20.5H267.556V39H265.256V36.425C264.806 37.2417 264.139 37.9167 263.256 38.45C262.373 38.9667 261.339 39.225 260.156 39.225C258.939 39.225 257.831 38.925 256.831 38.325C255.848 37.725 255.073 36.8833 254.506 35.8C253.939 34.7167 253.656 33.4833 253.656 32.1ZM265.256 32.125C265.256 31.0917 265.048 30.1917 264.631 29.425C264.214 28.6583 263.648 28.075 262.931 27.675C262.231 27.2583 261.456 27.05 260.606 27.05C259.756 27.05 258.981 27.25 258.281 27.65C257.581 28.05 257.023 28.6333 256.606 29.4C256.189 30.1667 255.981 31.0667 255.981 32.1C255.981 33.15 256.189 34.0667 256.606 34.85C257.023 35.6167 257.581 36.2083 258.281 36.625C258.981 37.025 259.756 37.225 260.606 37.225C261.456 37.225 262.231 37.025 262.931 36.625C263.648 36.2083 264.214 35.6167 264.631 34.85C265.048 34.0667 265.256 33.1583 265.256 32.125Z" fill="white"/>
<path d="M32.5625 14.4153V43.5832C32.5627 43.6465 32.5816 43.7083 32.6168 43.7609C32.6519 43.8135 32.7019 43.8546 32.7603 43.8789C32.8187 43.9032 32.883 43.9098 32.9451 43.8977C33.0073 43.8856 33.0644 43.8555 33.1095 43.8111L48.2969 29L33.1095 14.1874C33.0644 14.143 33.0073 14.1128 32.9451 14.1008C32.883 14.0887 32.8187 14.0953 32.7603 14.1196C32.7019 14.1439 32.6519 14.185 32.6168 14.2376C32.5816 14.2902 32.5627 14.352 32.5625 14.4153ZM54.6648 22.914L35.6218 12.4225L35.6099 12.4158C35.2819 12.2377 34.9702 12.6815 35.2388 12.9398L50.1664 27.2135L54.6648 22.914ZM35.2403 45.0602C34.9702 45.3185 35.2819 45.7623 35.6114 45.5842L35.6233 45.5775L54.6648 35.0859L50.1664 30.7849L35.2403 45.0602ZM62.3524 27.1445L57.0346 24.2158L52.0345 29L57.0346 33.7819L62.3524 30.8554C63.7989 30.0561 63.7989 27.9438 62.3524 27.1445Z" fill="white"/>
<defs>
<filter id="filter0_d_0_1" x="0" y="0" width="305" height="64" filterUnits="userSpaceOnUse" color-interpolation-filters="sRGB">
<feFlood flood-opacity="0" result="BackgroundImageFix"/>
<feColorMatrix in="SourceAlpha" type="matrix" values="0 0 0 0 0 0 0 0 0 0 0 0 0 0 0 0 0 0 127 0" result="hardAlpha"/>
<feOffset dy="2"/>
<feGaussianBlur stdDeviation="2"/>
<feComposite in2="hardAlpha" operator="out"/>
<feColorMatrix type="matrix" values="0 0 0 0 0 0 0 0 0 0 0 0 0 0 0 0 0 0 0.25 0"/>
<feBlend mode="normal" in2="BackgroundImageFix" result="effect1_dropShadow_0_1"/>
<feBlend mode="normal" in="SourceGraphic" in2="effect1_dropShadow_0_1" result="shape"/>
</filter>
</defs>
</svg>
